<?xml version="1.0" encoding="UTF-8"?>
<svg width="512px" height="512px" viewBox="0 0 512 512" version="1.1" xmlns="http://www.w3.org/2000/svg" xmlns:xlink="http://www.w3.org/1999/xlink">
    <!-- Generator: Sketch 62 (91390) - https://sketch.com -->
    <title>Artboard</title>
    <desc>Created with Sketch.</desc>
    <g id="Artboard" stroke="none" stroke-width="1" fill="none" fill-rule="evenodd">
        <g id="Group" transform="translate(85.000000, 78.000000)" fill-rule="nonzero">
            <path d="M331.23415,324.406275 L325.433649,343.510115 C322.743689,352.365265 313.709979,357.621908 304.746366,355.549239 L79,303.317964 L104.67291,219 L320.763458,302.797592 C329.350301,306.113863 333.915348,315.551125 331.23415,324.406275 Z" id="Path" fill="#424242"></path>
            <circle id="Oval" fill="#78909C" cx="61.5" cy="252.5" r="61.5"></circle>
            <path d="M175.153577,297 C174.295591,297 173.428759,296.875367 172.570773,296.608296 L149.263618,289.43299 C144.593342,287.99971 141.957467,283.023288 143.390392,278.313937 C144.814473,273.613489 149.776641,270.933877 154.429227,272.402767 L177.736382,279.578073 C182.406658,281.011354 185.042533,285.987775 183.609608,290.697126 C182.442039,294.534045 178.939332,297 175.153577,297 Z" id="Path" fill="#BF360C"></path>
            <path d="M89,197.742216 C88.7351525,206.576394 86.9695024,230.605358 77.964687,258.43302 C68.9598716,286.172339 56.247191,306.57929 51.3033708,314 C48.2134831,313.469949 45.211878,312.763215 42.1219904,311.791455 C39.2969502,310.908038 36.5601926,309.759594 34,308.434468 C34.176565,307.727734 34.529695,307.109341 34.9711075,306.490949 C35.1476726,306.314265 50.8619583,284.670529 61.1910112,252.955829 C71.3434992,221.77118 71.4317817,195.356988 71.4317817,194.208545 C71.4317817,193.413469 71.5200642,192.706734 71.6966292,192 C74.5216693,192.530051 77.434992,193.236785 80.2600321,194.120203 C83.3499197,195.091962 86.2632424,196.328747 89,197.742216 Z" id="Path" fill="#90A4AE"></path>
            <path d="M105.366106,126.057302 L217,61.0579068 C217.218169,61.0579068 190.010198,26 190.010198,26 L83.4083339,89.4505476 C73.3117976,95.4632092 70.0018896,108.419581 75.9632358,118.47839 C81.96848,128.624213 95.1290957,132.026457 105.366106,126.057302" id="Path" fill="#E39D36"></path>
            <path d="M71.13634,126.06105 L186,58.025808 C186.216594,58.025808 159.205028,23 159.205028,23 L49.3370735,89.4708139 C39.3134204,95.4764797 36.0186892,108.43516 41.9457189,118.482265 C47.9076134,128.624974 60.9732274,132.02326 71.13634,126.06105" id="Path" fill="#EDA740"></path>
            <path d="M44.8800288,118.861584 L153.050186,54.5700779 C153.295291,54.5700779 152.796327,54.5700779 153.050186,54.5700779 L201.581007,78.4472777 L226.695532,110.41785 C226.695532,110.41785 169.279649,124.274684 165.471765,124.861541 C152.787574,126.823571 141.118817,134.076073 138.720288,146.680362 C135.420123,164.110893 148.918414,179.386695 165.874438,178.992537 C165.874438,178.992537 249.472804,162.867106 281.686624,155.632122 C288.339478,154.134322 294.668444,151.576677 300.472184,147.994221 L341.632342,122.627981 C341.763649,122.409004 342,26.2783114 342,26.2783114 L306.223401,49.9978481 L173.980416,4.03905597 C163.668492,-1.58426108 151.150621,-1.33024832 141.083802,4.76605802 L20.5358346,77.8779388 C9.34853503,84.6224156 5.67195769,99.1099022 12.2897969,110.382814 C18.9426511,121.717038 33.5264079,125.518471 44.8800288,118.861584" id="Path" fill="#FFB74D"></path>
            <path d="M162.461081,135.017258 C153.509468,135.443693 146.595119,142.919367 147.018446,151.74397 C147.441774,160.577275 155.035211,167.391538 163.969185,166.982509 C172.911979,166.564776 173.308848,159.785323 172.89434,150.943315 C172.471013,142.127416 171.403875,134.590822 162.461081,135.017258 Z" id="Path" fill="#FFCC80"></path>
        </g>
    </g>
</svg>